<?xml version="1.0" encoding="UTF-8"?>
<svg id="Layer_1" data-name="Layer 1" xmlns="http://www.w3.org/2000/svg" viewBox="0 0 726.08 710.44">
  <defs>
    <style>
      .cls-1 {
        fill: #fff;
      }

      .cls-2 {
        fill: #ffb6b5;
      }
    </style>
  </defs>
  <polygon class="cls-2" points="269.59 636.64 0 710.44 102.71 450.49 269.59 636.64"/>
  <circle class="cls-2" cx="378.08" cy="348" r="348"/>
  <g>
    <path class="cls-1" d="M329.99,135.67h76.03V484.13c-38.94,7.37-67.61,10.26-98.63,10.26-92.86-.1-141.2-41.58-141.2-121.26s51.27-126.59,130.73-126.59c12.33,0,21.72,.97,33.07,3.88v-114.76h0Zm2.66,177.56c-8.9-2.91-16.24-3.88-25.64-3.88-38.45,0-60.67,23.46-60.67,64.56s21.23,62.12,60.18,62.12c8.41,0,15.26-.47,26.12-1.93v-120.88h0Z"/>
    <path class="cls-1" d="M526.35,251.91v174.47c0,60.08-4.5,88.98-17.71,113.89-12.33,23.95-28.57,39.05-62.13,55.73l-70.55-33.25c33.56-15.6,49.8-29.38,60.18-50.41,10.86-21.51,14.28-46.42,14.28-111.94V251.91h75.93Zm-75.59-114.24h76.03v77.25h-76.03v-77.25Z"/>
  </g>
</svg>